<?xml version="1.0" encoding="UTF-8"?>
<svg xmlns="http://www.w3.org/2000/svg" viewBox="0 0 202.87 202.91">
  <defs>
    <style>
      .cls-1 {
        isolation: isolate;
      }

      .cls-2 {
        fill: #9f94f0;
        mix-blend-mode: multiply;
      }
    </style>
  </defs>
  <g class="cls-1">
    <g id="Layer_2" data-name="Layer 2">
      <g id="Layer_1-2" data-name="Layer 1">
        <path class="cls-2" d="m202.87,101.47c.05,56.28-45.59,100.9-100.36,101.43C46.31,203.44.28,158.19,0,102.01-.28,45.77,44.98.26,100.95,0c56.45-.26,102.05,45.39,101.92,101.47Zm-192.91-.12c-.34,49.45,39.91,91.13,90.57,91.61,50.73.47,91.19-40.18,92.44-89.11,1.3-50.91-39.51-93.41-90.63-93.91C51.19,9.44,9.75,51.08,9.96,101.35Zm12.85-37.82c2.93,1.64,5.77,3.23,8.62,4.83,11.56,6.52,23.13,13.04,34.69,19.55q2.17,1.22,4.07-.48c1.37-1.22,2.85-2.3,4.36-3.34,1.73-1.18,1.81-.83.72-2.77-4.3-7.65-8.59-15.3-12.88-22.96-4.51-8.06-9.02-16.11-13.53-24.17-.88-1.57-.89-1.62.63-2.67,2.2-1.52,4.45-2.95,6.65-4.46.91-.63,1.4-.47,1.94.51,2.8,4.99,5.67,9.94,8.52,14.91,6.51,11.31,13.02,22.62,19.53,33.93,1.02,1.77,1.01,1.73,2.97,1.25,1.55-.38,3.13-.68,4.7-.99,1.93-.38,1.94-.37,1.95-2.27.01-5.5.02-11,.02-16.5,0-13.52-.01-27.03-.02-40.55,0-.31.04-.62,0-.92-.17-1.22.42-1.51,1.55-1.61,2.6-.24,5.17-.18,7.76,0,1.13.08,1.47.52,1.38,1.55-.04.45,0,.92,0,1.37,0,18.56,0,37.11,0,55.67,0,.31,0,.61,0,.92-.03,2.1.28,1.99,1.79,2.2,1.81.25,3.61.63,5.37,1.12,1.26.35,1.94.04,2.57-1.11,2.96-5.34,6.01-10.62,9.03-15.93,6.11-10.75,12.21-21.5,18.32-32.25.15-.27.34-.52.45-.8.41-1.01.96-1.17,1.92-.56,2.57,1.64,5.14,3.3,7.56,5.16,1.26.97,1.27,1,.44,2.39-3.05,5.11-6.11,10.22-9.16,15.32-6.07,10.15-12.14,20.3-18.22,30.46-.23.39-.45.8-.7,1.18-.36.56-.28.97.31,1.32,2.67,1.64,5.19,3.5,7.45,5.68.74.71,1.38.3,2.05-.1,3.15-1.87,6.3-3.73,9.46-5.59,10.65-6.27,21.31-12.53,31.96-18.79.39-.23.8-.44,1.18-.7.57-.38.98-.27,1.28.34,1.35,2.74,2.54,5.55,3.57,8.42.29.81-.14,1.12-.68,1.44-1.9,1.13-3.81,2.25-5.71,3.38-11.14,6.64-22.28,13.28-33.42,19.92-.26.16-.51.33-.79.46-.96.46-1.11,1.07-.58,2.02,1.04,1.87,1.88,3.83,2.55,5.86.75,2.25,1.38,4.53,1.64,6.88.12,1.09.58,1.42,1.6,1.41,2.44-.04,4.89,0,7.33,0,9.85-.03,19.7-.07,29.55-.11.53,0,1.07.03,1.6,0,.98-.07,1.43.3,1.28,1.32-.41,2.87-.96,5.7-1.72,8.5-.17.64-.55.84-1.16.81-1.67-.1-3.35-.22-5.02-.26-11.38-.29-22.75.07-34.11.47-6.31.22-12.55,1.52-18.76,2.73-4.64.91-9.22,2.04-13.79,3.24-.48.13-.96.3-1.44.46.26.85.92.95,1.42,1.24,6.35,3.65,12.85,7.02,19.27,10.54,1.6.88,3.1.99,4.81.71,13.46-2.22,27.02-2.61,40.62-2.19.36.01.71.09,1.01.14.28.81-.19,1.31-.47,1.82-1.33,2.49-2.83,4.88-4.31,7.29-.79,1.27-1.74,1.65-3.19,1.65-4.66,0-9.31.1-13.97.23-2.44.07-4.87.26-7.31.41-.29.02-.62,0-.86.57,3.98,4.05,8.54,7.6,12.75,11.68-.35.88-1.12,1.4-1.78,1.98-1.55,1.36-3.17,2.63-4.71,4-.88.78-1.51.67-2.33-.12-1.87-1.8-3.79-3.55-5.76-5.23-13.96-11.98-29.74-20.69-47.26-26.31-10.91-3.5-21.97-6.3-33.32-7.94-14.61-2.11-29.28-3.05-44.04-2.13-4.77.3-3.72.83-5.01-3.5-.54-1.82-1-3.68-1.39-5.54-.32-1.56-.17-1.71,1.46-1.72,5.73-.02,11.45-.02,17.18-.02,6.34,0,12.68,0,19.02,0,.46,0,.92-.04,1.37,0,1.17.11,1.64-.34,1.61-1.56-.05-2.6.33-5.16.93-7.7.74-3.14,1.82-6.13,3.26-9.01.95-1.89.96-1.93-.82-3.01-6.84-4.17-13.69-8.32-20.56-12.45-6.08-3.66-12.19-7.27-18.26-10.94-2.17-1.31-1.83-1.08-1.11-2.97.89-2.34,1.77-4.68,3.12-7.01Zm69.21,61.22c3.06.3,7.47-.9,11.62-3.28,1.66-.95,3.47-1.55,5.29-2.12,7.19-2.23,14.63-2.88,22.08-3.44,1.97-.15,2.03-.12,1.78-2.15-.77-6.12-3.4-11.37-7.73-15.71-5.23-5.24-11.56-8.37-18.89-9.45-10.54-1.55-20.04.9-28.15,7.85-6.54,5.6-9.93,12.8-9.8,21.52.02,1.28.19,2.32,1.71,2.82,6.62,2.17,13.36,3.67,22.1,3.96Zm-58.54,32.4c.48.61,1.09.72,1.83.67,1.52-.11,3.04-.17,4.57-.22,9.11-.28,18.14.53,27.06,2.27,15.42,3,29.82,8.67,43.14,17.04,4.14,2.6,8.14,5.38,11.95,8.46.5.41.95.97,1.8.72,3.79-1.11,7.58-2.23,11.51-4.07-31.4-27.28-67.39-39.06-108.98-35.04,2.27,3.92,4.67,7.07,7.13,10.18Z"/>
      </g>
    </g>
  </g>
</svg>